<svg width="25" height="22" viewBox="0 0 25 22" fill="none" xmlns="http://www.w3.org/2000/svg">
<rect x="0.661743" y="0.536774" width="24" height="21.1765" rx="4.28571" fill="white"/>
<rect x="1.41174" y="1.28677" width="22.5" height="19.6765" rx="3.53571" stroke="black" stroke-opacity="0.1" stroke-width="1.5"/>
<path d="M12.1456 8.20002C12.1456 7.91398 12.3757 7.68385 12.6618 7.68385C12.9478 7.68385 13.1779 7.91398 13.1779 8.20002V10.8497L15.0125 12.0713C15.2491 12.2305 15.3136 12.551 15.1373 12.7875C14.9975 13.0241 14.677 13.0886 14.4404 12.9123L12.3757 11.5358C12.2316 11.4584 12.1456 11.2971 12.1456 11.1057V8.20002ZM12.6618 5.61914C15.7029 5.61914 18.1676 8.08388 18.1676 11.125C18.1676 14.1662 15.7029 16.6309 12.6618 16.6309C9.62063 16.6309 7.15588 14.1662 7.15588 11.125C7.15588 8.08388 9.62063 5.61914 12.6618 5.61914ZM8.18824 11.125C8.18824 13.5962 10.1906 15.5986 12.6618 15.5986C15.133 15.5986 17.1353 13.5962 17.1353 11.125C17.1353 8.65383 15.133 6.65149 12.6618 6.65149C10.1906 6.65149 8.18824 8.65383 8.18824 11.125Z" fill="black" fill-opacity="0.6"/>
</svg>
