<svg width="25" height="22" viewBox="0 0 25 22" fill="none" xmlns="http://www.w3.org/2000/svg">
<rect x="0.49707" y="0.13678" width="24" height="21.1765" rx="4.28571" fill="white"/>
<rect x="1.24707" y="0.88678" width="22.5" height="19.6765" rx="3.53571" stroke="black" stroke-opacity="0.1" stroke-width="1.5"/>
<path d="M17.3147 16.2304C16.9418 16.2304 16.5959 16.1371 16.2769 15.9508C15.9579 15.7643 15.7087 15.5134 15.5296 15.198C13.472 15.1836 11.9879 14.3735 11.0775 12.7677C10.805 12.2873 10.5146 11.5596 10.2065 10.5847C9.91968 9.66693 9.6651 9.05935 9.44294 8.76196C9.22064 8.46437 8.8622 8.31571 8.36757 8.31571L8.088 8.31571C7.90872 8.63113 7.65951 8.88199 7.34064 9.0685C7.02158 9.25488 6.6756 9.34807 6.30292 9.34807C5.72927 9.34807 5.242 9.14731 4.84041 8.74586C4.43896 8.34427 4.2382 7.85686 4.2382 7.28335C4.2382 6.70984 4.43896 6.22229 4.84041 5.82084C5.24186 5.41939 5.7292 5.21857 6.30285 5.21857C6.67553 5.21857 7.02151 5.31168 7.34058 5.49813C7.65951 5.6845 7.90865 5.93537 8.08793 6.25092L16.906 6.25092C17.0851 5.93537 17.3343 5.6845 17.6533 5.49813C17.9723 5.31169 18.3183 5.21857 18.6911 5.21857C19.2647 5.21857 19.7521 5.41919 20.1537 5.82078C20.5552 6.22236 20.7559 6.70964 20.7559 7.28328C20.7559 7.85693 20.5551 8.3442 20.1537 8.74579C19.7521 9.14724 19.2647 9.348 18.6911 9.348C18.3183 9.348 17.9723 9.25474 17.6534 9.06843C17.3344 8.88192 17.0851 8.63106 16.9061 8.31564L11.5615 8.31564C11.7478 8.70277 11.9521 9.25474 12.1744 9.97168C12.2962 10.3659 12.402 10.6796 12.4916 10.9126C12.5812 11.1455 12.6923 11.3983 12.825 11.6708C12.9576 11.9432 13.0992 12.1547 13.2498 12.3053C13.4004 12.4559 13.5832 12.601 13.7982 12.7408C14.0133 12.8806 14.2623 12.9809 14.5456 13.0419C14.8287 13.1027 15.1567 13.1333 15.5296 13.1333C15.7087 12.8178 15.9579 12.5669 16.2769 12.3805C16.5959 12.194 16.9418 12.101 17.3147 12.101C17.8882 12.101 18.3756 12.3016 18.7772 12.7032C19.1788 13.1047 19.3794 13.592 19.3794 14.1657C19.3794 14.7393 19.1786 15.2266 18.7772 15.6282C18.3756 16.0296 17.8882 16.2304 17.3147 16.2304ZM17.9599 8.01454C18.1605 8.21516 18.4044 8.31564 18.6911 8.31564C18.9779 8.31564 19.2216 8.21516 19.4224 8.01454C19.623 7.81378 19.7235 7.56993 19.7235 7.28328C19.7235 6.99663 19.623 6.75265 19.4224 6.55203C19.2218 6.35141 18.9778 6.25092 18.6911 6.25092C18.4045 6.25092 18.1605 6.35127 17.9599 6.55203C17.7591 6.75265 17.6588 6.99649 17.6588 7.28328C17.6588 7.57007 17.7591 7.81378 17.9599 8.01454ZM5.5716 8.01453C5.77222 8.21516 6.01606 8.31564 6.30285 8.31564C6.58964 8.31564 6.83334 8.21516 7.0341 8.01453C7.23473 7.81378 7.33521 7.56993 7.33521 7.28328C7.33521 6.99663 7.23473 6.75265 7.0341 6.55203C6.83348 6.35141 6.5895 6.25092 6.30285 6.25092C6.0162 6.25092 5.77222 6.35127 5.5716 6.55203C5.37098 6.75265 5.27049 6.99649 5.27049 7.28328C5.27049 7.57007 5.37098 7.81378 5.5716 8.01453ZM16.5834 14.8969C16.784 15.0975 17.0279 15.198 17.3147 15.198C17.6015 15.198 17.8452 15.0975 18.0459 14.8969C18.2465 14.6962 18.347 14.4523 18.347 14.1657C18.347 13.879 18.2465 13.635 18.0459 13.4344C17.8453 13.2338 17.6013 13.1333 17.3147 13.1333C17.028 13.1333 16.784 13.2337 16.5834 13.4344C16.3827 13.635 16.2823 13.8789 16.2823 14.1657C16.2823 14.4525 16.3827 14.6962 16.5834 14.8969Z" fill="black" fill-opacity="0.6"/>
</svg>
