<svg width="25" height="22" viewBox="0 0 25 22" fill="none" xmlns="http://www.w3.org/2000/svg">
<rect x="0.838257" y="0.536774" width="24" height="21.1765" rx="4.28571" fill="white"/>
<rect x="1.58826" y="1.28677" width="22.5" height="19.6765" rx="3.53571" stroke="black" stroke-opacity="0.1" stroke-width="1.5"/>
<path d="M12.8383 6.95386C15.3289 6.95386 17.5777 8.38266 18.7244 10.62C18.8848 10.9375 18.8848 11.3123 18.7231 11.6322C17.5781 13.8666 15.3286 15.2961 12.8383 15.2961C10.3477 15.2961 8.09894 13.8673 6.95223 11.6299C6.79176 11.3125 6.79176 10.9377 6.95348 10.6178C8.09848 8.38335 10.348 6.95386 12.8383 6.95386ZM15.6241 8.71736L15.7066 8.82115C16.107 9.34321 16.342 9.97952 16.342 10.6662C16.3425 11.5181 15.9735 12.3353 15.3163 12.9377C14.6591 13.5401 13.7677 13.8783 12.8383 13.8779C10.9032 13.8779 9.33455 12.44 9.33455 10.6662C9.33455 9.933 9.60253 9.25723 10.0536 8.71664C9.13084 9.25963 8.35892 10.0702 7.84563 11.0719C7.82872 11.1053 7.82872 11.1448 7.84437 11.1758C8.82149 13.0823 10.7302 14.295 12.8383 14.295C14.9461 14.295 16.8555 13.0816 17.831 11.1781C17.8479 11.1446 17.8479 11.1051 17.8322 11.0742C17.3183 10.0715 16.5468 9.26076 15.6241 8.71736ZM12.0572 8.37935C10.872 8.78127 10.2107 9.50534 10.1308 10.7281C10.1176 10.9305 10.2859 11.1044 10.5066 11.1165C10.7274 11.1286 10.917 10.9744 10.9303 10.772C10.99 9.85828 11.4322 9.37404 12.3351 9.06786C12.5425 8.99753 12.6484 8.78638 12.5717 8.59625C12.495 8.40612 12.2646 8.30901 12.0572 8.37935Z" fill="black" fill-opacity="0.6"/>
</svg>
